<?xml version="1.0" encoding="UTF-8"?>
<svg xmlns="http://www.w3.org/2000/svg" viewBox="0 0 512 512" width="512" height="512">
  <defs>
    <linearGradient id="bgGrad" x1="0%" y1="0%" x2="100%" y2="100%">
      <stop offset="0%" stop-color="#7eb8f7"/>
      <stop offset="100%" stop-color="#3d3fa5"/>
    </linearGradient>
    <filter id="shadow" x="-10%" y="-10%" width="120%" height="130%">
      <feDropShadow dx="0" dy="8" stdDeviation="10" flood-color="#000" flood-opacity="0.30"/>
    </filter>
  </defs>

  <rect width="512" height="512" rx="108" ry="108" fill="url(#bgGrad)"/>
  <ellipse cx="160" cy="140" rx="180" ry="160" fill="white" fill-opacity="0.10"/>

  <g filter="url(#shadow)">
    <path d="M 256 68 C 108 68 98 228 165 228 C 203 228 228 266 256 436 C 284 266 309 228 347 228 C 414 228 404 68 256 68 Z"
          fill="white" fill-opacity="0.94"/>

    <path d="M 198 222 L 256 118 L 314 222 Z" fill="#3d3fa5" fill-opacity="0.30"/>
    <path d="M 140 222 L 198 150 L 256 222 Z" fill="#3d3fa5" fill-opacity="0.22"/>
    <path d="M 256 222 L 314 150 L 372 222 Z" fill="#3d3fa5" fill-opacity="0.22"/>

    <path d="M 256 118 L 272 155 L 240 155 Z" fill="white" fill-opacity="0.92"/>
    <path d="M 198 150 L 212 178 L 184 178 Z" fill="white" fill-opacity="0.92"/>
    <path d="M 314 150 L 328 178 L 300 178 Z" fill="white" fill-opacity="0.92"/>

    <circle cx="312" cy="138" r="16" fill="white" fill-opacity="0.85"/>
  </g>
</svg>
